<svg width="345" height="77" viewBox="0 0 345 77" fill="none" xmlns="http://www.w3.org/2000/svg">
<g style="mix-blend-mode:darken" filter="url(#filter0_d_102_2)">
<path d="M52.115 0.799995V3.68H29.555V68H26.675V3.68H4.115V0.799995H52.115ZM48.7813 12.32L69.7093 61.568L84.2053 27.488L98.6053 61.568L118.285 15.2H56.3653V12.32H122.605L98.6053 68.96L84.2053 34.88L69.7093 68.96L45.7093 12.32H48.7813ZM161.093 62.336C157.573 66.752 151.813 68.96 143.813 68.96C135.813 68.96 130.085 66.688 126.629 62.144C123.173 57.6 121.445 50.272 121.445 40.16C121.445 30.048 123.173 22.72 126.629 18.176C130.085 13.632 135.813 11.36 143.813 11.36C153.093 11.36 159.397 14.4 162.725 20.48L139.205 40.16H134.693L158.981 19.904C156.165 16.128 151.109 14.24 143.813 14.24C140.613 14.24 137.925 14.592 135.749 15.296C133.573 15.936 131.557 17.184 129.701 19.04C127.909 20.832 126.565 23.488 125.669 27.008C124.773 30.464 124.325 34.848 124.325 40.16C124.325 45.472 124.773 49.888 125.669 53.408C126.565 56.864 127.909 59.52 129.701 61.376C131.557 63.168 133.573 64.416 135.749 65.12C137.925 65.76 140.613 66.08 143.813 66.08C151.109 66.08 156.165 64.192 158.981 60.416L161.093 62.336Z" fill="#FF1414"/>
<path d="M166.839 68V12.32H169.719L201.015 62.72V12.32H203.895V68H201.015L169.719 17.504V68H166.839Z" fill="#20FF0D"/>
<path d="M215.335 62.144C211.879 57.6 210.151 50.272 210.151 40.16C210.151 30.048 211.879 22.72 215.335 18.176C218.791 13.632 224.519 11.36 232.519 11.36C240.519 11.36 246.279 13.568 249.799 17.984L247.687 19.904C244.871 16.128 239.815 14.24 232.519 14.24C229.319 14.24 226.631 14.592 224.455 15.296C222.279 15.936 220.263 17.184 218.407 19.04C216.615 20.832 215.271 23.488 214.375 27.008C213.479 30.464 213.031 34.848 213.031 40.16C213.031 45.472 213.479 49.888 214.375 53.408C215.271 56.864 216.615 59.52 218.407 61.376C220.263 63.168 222.279 64.416 224.455 65.12C226.631 65.76 229.319 66.08 232.519 66.08C239.815 66.08 244.871 64.192 247.687 60.416L249.799 62.336C246.279 66.752 240.519 68.96 232.519 68.96C224.519 68.96 218.791 66.688 215.335 62.144ZM282.546 15.296C280.37 14.592 277.682 14.24 274.482 14.24C271.282 14.24 268.594 14.592 266.418 15.296C264.242 15.936 262.226 17.184 260.37 19.04C258.578 20.832 257.234 23.488 256.338 27.008C255.442 30.464 254.994 34.848 254.994 40.16C254.994 45.472 255.442 49.888 256.338 53.408C257.234 56.864 258.578 59.52 260.37 61.376C262.226 63.168 264.242 64.416 266.418 65.12C268.594 65.76 271.282 66.08 274.482 66.08C277.682 66.08 280.37 65.76 282.546 65.12C284.722 64.416 286.706 63.168 288.498 61.376C290.354 59.52 291.73 56.864 292.626 53.408C293.522 49.888 293.97 45.472 293.97 40.16C293.97 34.848 293.522 30.464 292.626 27.008C291.73 23.488 290.354 20.832 288.498 19.04C286.706 17.184 284.722 15.936 282.546 15.296ZM291.666 62.144C288.21 66.688 282.482 68.96 274.482 68.96C266.482 68.96 260.754 66.688 257.298 62.144C253.842 57.6 252.114 50.272 252.114 40.16C252.114 30.048 253.842 22.72 257.298 18.176C260.754 13.632 266.482 11.36 274.482 11.36C282.482 11.36 288.21 13.632 291.666 18.176C295.122 22.72 296.85 30.048 296.85 40.16C296.85 50.272 295.122 57.6 291.666 62.144ZM303.133 68V12.32H306.013L337.309 62.72V12.32H340.189V68H337.309L306.013 17.504V68H303.133Z" fill="#0094FF"/>
</g>
<defs>
<filter id="filter0_d_102_2" x="0.11499" y="0.799988" width="344.073" height="76.16" filterUnits="userSpaceOnUse" color-interpolation-filters="sRGB">
<feFlood flood-opacity="0" result="BackgroundImageFix"/>
<feColorMatrix in="SourceAlpha" type="matrix" values="0 0 0 0 0 0 0 0 0 0 0 0 0 0 0 0 0 0 127 0" result="hardAlpha"/>
<feOffset dy="4"/>
<feGaussianBlur stdDeviation="2"/>
<feComposite in2="hardAlpha" operator="out"/>
<feColorMatrix type="matrix" values="0 0 0 0 0 0 0 0 0 0 0 0 0 0 0 0 0 0 0.25 0"/>
<feBlend mode="normal" in2="BackgroundImageFix" result="effect1_dropShadow_102_2"/>
<feBlend mode="normal" in="SourceGraphic" in2="effect1_dropShadow_102_2" result="shape"/>
</filter>
</defs>
</svg>
